<?xml version="1.0" encoding="utf-8"?>
<!-- Generator: Adobe Illustrator 18.1.1, SVG Export Plug-In . SVG Version: 6.00 Build 0)  -->
<svg version="1.1" id="Layer_1" xmlns="http://www.w3.org/2000/svg" xmlns:xlink="http://www.w3.org/1999/xlink" x="0px" y="0px"
	 viewBox="0 0 168.1 13.2" enable-background="new 0 0 168.1 13.2" xml:space="preserve">
<g>
	<defs>
		<rect id="SVGID_1_" x="0" y="0" width="168.1" height="13.2"/>
	</defs>
	<clipPath id="SVGID_2_">
		<use xlink:href="#SVGID_1_"  overflow="visible"/>
	</clipPath>
	<path clip-path="url(#SVGID_2_)" d="M47.4,0.2h2.3l4.1,5.8c0,0,0,0,0,0c0,0.1,0.1,0,0.2,0c0,0,0,0,0,0l4.1-5.9h2.2V13h-2.2V4.1v0
		C58.1,4,58,3.9,57.9,4c0,0,0,0,0,0L54,9.5h-0.3l-3.9-5.4c0,0,0,0,0,0c0-0.1-0.2,0-0.2,0v0V13h-2.3V0.2z"/>
	<path clip-path="url(#SVGID_2_)" d="M67.1,5.5L67.1,5.5h7.3h0c0.1,0,0.2,0,0.2-0.2v0c-0.2-1.9-1.5-3.1-3.7-3.1
		c-2.2,0-3.7,1.3-4,3.1c0,0,0,0,0,0C66.8,5.4,67,5.5,67.1,5.5 M76.1,11.5c-1.3,1.1-3.1,1.6-4.8,1.6c-4.1,0-6.8-2.6-6.8-6.6
		C64.4,2.9,66.8,0,71,0c3.3,0,5.9,2.3,5.9,5.8c0,0.6,0,1.1-0.1,1.5h-9.6h0c-0.1,0-0.2,0.1-0.2,0.2v0c0.3,2.2,2,3.5,4.4,3.5
		c1.6,0,3.1-0.6,3.9-1.3L76.1,11.5z"/>
	<path clip-path="url(#SVGID_2_)" d="M17.2,3.6C17.2,1.3,19,0,21.5,0c2.1,0,3.6,0.8,4.4,1.5l-1.1,1.7C24.1,2.5,23,2,21.6,2
		c-1.3,0-2,0.7-2,1.6c0,2.7,6.9,1.4,6.9,5.8c0,2.7-2.4,3.8-4.9,3.8c-2.1,0-4.1-1.1-4.7-2l1.3-1.6c0.7,0.8,2.4,1.6,3.7,1.6
		c1.2,0,2.3-0.6,2.3-1.7C24.1,6.9,17.2,8.2,17.2,3.6"/>
	<path clip-path="url(#SVGID_2_)" d="M36.6,11.1c2.6,0,4.4-1.8,4.4-4.5c0-2.6-1.8-4.5-4.4-4.5c-2.5,0-4.4,1.8-4.4,4.5
		C32.2,9.2,34,11.1,36.6,11.1 M36.6,0c4.1,0,6.8,2.8,6.8,6.6c0,3.8-2.7,6.6-6.8,6.6c-4.1,0-6.8-2.8-6.8-6.6C29.8,2.8,32.5,0,36.6,0"
		/>
	<path clip-path="url(#SVGID_2_)" d="M6.8,11.1c2.6,0,4.4-1.8,4.4-4.5c0-2.6-1.8-4.5-4.4-4.5c-2.5,0-4.4,1.8-4.4,4.5
		C2.4,9.2,4.2,11.1,6.8,11.1 M6.8,0c4.1,0,6.8,2.8,6.8,6.6c0,3.8-2.7,6.6-6.8,6.6C2.7,13.2,0,10.3,0,6.6C0,2.8,2.7,0,6.8,0"/>
	<path clip-path="url(#SVGID_2_)" d="M88,10.8l4.9-4.9c0.6-0.6,1.3-1.3,1.3-2.1c0-1-0.9-1.7-1.8-1.7c-1.1,0-1.8,0.7-1.9,1.7h-2.3
		c0.2-2.3,2-3.7,4.2-3.7c2.3,0,4.1,1.2,4.1,3.6c0,1.6-0.8,2.7-2,3.7l-3.9,3.8h5.9V13H88V10.8z"/>
	<path clip-path="url(#SVGID_2_)" d="M138.5,0.2h2.3l4.1,5.8c0,0,0,0,0,0c0,0.1,0.1,0,0.2,0c0,0,0,0,0,0l4.1-5.9h2.2V13h-2.2V4.1v0
		c0-0.1-0.1-0.1-0.2-0.1c0,0,0,0,0,0l-3.9,5.4h-0.3l-3.9-5.4c0,0,0,0,0,0c0-0.1-0.2,0-0.2,0v0V13h-2.3V0.2z"/>
	<path clip-path="url(#SVGID_2_)" d="M158.2,5.5L158.2,5.5h7.3h0c0.1,0,0.2,0,0.2-0.2v0c-0.2-1.9-1.5-3.1-3.7-3.1
		c-2.2,0-3.7,1.3-4,3.1c0,0,0,0,0,0C158,5.4,158.1,5.5,158.2,5.5 M167.2,11.5c-1.2,1.1-3.1,1.6-4.8,1.6c-4.1,0-6.8-2.6-6.8-6.6
		c0-3.7,2.4-6.6,6.6-6.6c3.3,0,5.9,2.3,5.9,5.8c0,0.6-0.1,1.1-0.1,1.5h-9.6h0c-0.1,0-0.2,0.1-0.2,0.2v0c0.3,2.2,2,3.5,4.4,3.5
		c1.6,0,3.1-0.6,3.9-1.3L167.2,11.5z"/>
	<path clip-path="url(#SVGID_2_)" d="M108.3,3.6c0-2.2,1.8-3.6,4.3-3.6c2.1,0,3.6,0.8,4.4,1.5L116,3.2c-0.8-0.7-1.9-1.2-3.2-1.2
		c-1.3,0-2,0.7-2,1.6c0,2.7,6.9,1.4,6.9,5.8c0,2.7-2.4,3.8-4.9,3.8c-2.1,0-4.1-1.1-4.7-2l1.3-1.6c0.7,0.8,2.4,1.6,3.7,1.6
		c1.2,0,2.3-0.6,2.3-1.7C115.2,6.9,108.3,8.2,108.3,3.6"/>
	<path clip-path="url(#SVGID_2_)" d="M127.7,11.1c2.6,0,4.4-1.8,4.4-4.5c0-2.6-1.8-4.5-4.4-4.5c-2.5,0-4.4,1.8-4.4,4.5
		C123.3,9.2,125.2,11.1,127.7,11.1 M127.7,0c4.1,0,6.8,2.8,6.8,6.6c0,3.8-2.7,6.6-6.8,6.6c-4.1,0-6.8-2.8-6.8-6.6
		C120.9,2.8,123.6,0,127.7,0"/>
</g>
</svg>
